<?xml version="1.0" encoding="UTF-8" standalone="no"?>
<!-- Created with Inkscape (http://www.inkscape.org/) -->

<svg
   width="1000"
   height="1000"
   viewBox="0 0 264.58333 264.58333"
   version="1.1"
   id="svg1"
   xml:space="preserve"
   inkscape:version="1.3 (0e150ed6c4, 2023-07-21)"
   sodipodi:docname="missel.svg"
   xmlns:inkscape="http://www.inkscape.org/namespaces/inkscape"
   xmlns:sodipodi="http://sodipodi.sourceforge.net/DTD/sodipodi-0.dtd"
   xmlns="http://www.w3.org/2000/svg"
   xmlns:svg="http://www.w3.org/2000/svg"><sodipodi:namedview
     id="namedview1"
     pagecolor="#505050"
     bordercolor="#eeeeee"
     borderopacity="1"
     inkscape:showpageshadow="0"
     inkscape:pageopacity="0"
     inkscape:pagecheckerboard="0"
     inkscape:deskcolor="#d1d1d1"
     inkscape:document-units="mm"
     inkscape:zoom="1.6204616"
     inkscape:cx="397.41762"
     inkscape:cy="561.87694"
     inkscape:window-width="3840"
     inkscape:window-height="2054"
     inkscape:window-x="2293"
     inkscape:window-y="-11"
     inkscape:window-maximized="1"
     inkscape:current-layer="layer1" /><defs
     id="defs1" /><g
     inkscape:label="Camada 1"
     inkscape:groupmode="layer"
     id="layer1"><path
       style="fill:#000000;stroke-width:1.91214"
       d="m 202.79575,258.29414 c -0.85599,0.32456 -7.27137,0.55466 -14.25635,0.51139 -9.79763,-0.0606 -13.03643,-0.29725 -14.17216,-1.03512 -0.8097,-0.52604 -6.09953,-5.05618 -11.75518,-10.06691 l -10.28301,-9.11046 -1.23777,1.476 c -0.68071,0.81188 -2.56837,2.42264 -4.19476,3.57954 l -2.95702,2.10347 -0.0239,5.08053 c -0.0134,2.7943 -0.37403,5.92732 -0.80211,6.96229 -1.72616,4.1735 -5.53237,6.17736 -11.36366,5.98268 -8.10071,-0.27047 -11.03109,-3.6958 -11.07442,-12.94497 l -0.0237,-5.08053 -2.95703,-2.10347 c -1.62636,-1.15692 -3.51401,-2.7677 -4.19477,-3.57954 l -1.23773,-1.47604 -10.11251,8.9537 c -5.561877,4.92455 -10.847286,9.45908 -11.745339,10.07676 -1.388265,0.95484 -3.536608,1.13345 -14.343142,1.19238 -6.990681,0.038 -13.451845,-0.2252 -14.358153,-0.58517 -3.952071,-1.56972 -6.354074,-6.23801 -5.276229,-10.25433 0.345872,-1.28876 6.390237,-13.32403 13.431917,-26.74504 14.445485,-27.53221 15.431467,-29.01902 21.248236,-32.04064 l 3.05127,-1.58504 0.117214,-2.04349 c 0.06443,-1.12394 0.109756,-32.8275 0.100765,-70.45238 -0.01147,-46.659213 0.231369,-69.846666 0.763192,-72.931131 2.183356,-12.66319 9.026019,-25.563725 17.571529,-33.1277883 9.95,-8.80727878 21.00812,-10.6159114 31.81674,-5.203856 3.40877,1.706811 4.34574,2.4425448 8.81723,6.9232933 6.76827,6.781776 10.89325,13.44879 13.88866,22.445355 2.86933,8.617846 3.02904,11.039322 3.10105,47.010379 l 0.0698,34.861168 -1.48958,1.25945 c -1.91387,1.61809 -4.43225,1.39546 -5.57757,-0.49304 -0.51968,-0.85691 -0.77591,-9.31584 -0.79612,-26.283513 l -0.0298,-25.01993 h -11.91935 c -10.50345,0 -12.05684,-0.137483 -13.07677,-1.157437 -1.41979,-1.419774 -1.31234,-3.641496 0.25173,-5.205575 0.9428,-0.942796 2.78773,-1.104478 12.9657,-1.136361 l 11.86646,-0.03719 -0.10842,-6.543745 C 162.33386,40.99982 160.10385,33.322933 155.08734,24.982683 143.77677,6.1782103 127.8444,3.0960608 115.24728,17.275529 c -4.09773,4.612461 -8.02428,11.320618 -10.21759,17.455858 -2.26883,6.346516 -2.81635,9.4284 -2.92529,16.465901 l -0.0902,5.834281 10.38539,0.01966 c 5.71195,0.0109 10.93276,0.275518 11.60176,0.588243 2.36438,1.105208 2.81767,4.340845 0.87965,6.278864 -0.32119,0.321201 -5.58621,0.601635 -11.70004,0.623204 l -11.11607,0.0392 0.002,53.6464 0.002,53.64641 30.21984,2e-5 h 30.21985 l 0.0323,-20.54547 c 0.0217,-13.76751 0.2848,-20.96261 0.79771,-21.80989 1.13667,-1.87769 3.66266,-2.11188 5.55313,-0.51486 1.45669,1.23063 1.46625,1.42081 1.49474,29.91556 l 0.0287,28.67712 3.06286,1.5874 c 5.76578,2.98827 6.77564,4.51222 21.24412,32.05872 7.04665,13.41606 13.09546,25.4469 13.44182,26.73514 1.07816,4.0099 -1.42569,8.8223 -5.36774,10.31685 z m -1.99245,-8.61175 c -0.0499,-0.44201 -5.86455,-11.772 -12.92147,-25.17778 -12.45605,-23.66221 -14.43254,-26.93194 -16.96028,-28.0577 -0.61958,-0.27595 -0.81922,0.46202 -0.95221,3.51954 -0.41593,9.56459 -4.05523,20.17195 -9.98685,29.10853 l -2.56895,3.87036 2.58899,2.34322 c 1.42395,1.28876 6.0672,5.415 10.31833,9.16945 l 7.72933,6.82621 11.0142,0.007 c 6.05783,0.004 11.19769,-0.17477 11.42192,-0.39908 0.22423,-0.22424 0.36689,-0.76935 0.31699,-1.21136 z m -64.39363,-24.68028 c 0.002,-16.42918 -0.24575,-30.12015 -0.55,-30.42438 -0.69785,-0.69786 -6.45314,-0.67495 -7.15656,0.0284 -0.28857,0.28858 -0.52323,14.01049 -0.52149,30.49316 0.002,26.88596 0.11817,30.03735 1.12122,30.63789 1.32068,0.79075 5.61564,0.62408 6.49163,-0.2519 0.33661,-0.33661 0.61346,-14.05407 0.6152,-30.48324 z m 12.68803,5.70894 c 10.51926,-12.55722 13.49505,-21.53557 13.44579,-40.56783 l -0.0277,-10.75502 -30.22004,2e-5 -30.22002,-2e-5 -0.0313,10.75853 c -0.044,15.08134 1.72136,22.96362 7.22122,32.24348 2.0102,3.39183 10.22534,13.46016 10.98264,13.46016 0.2228,1e-5 0.42294,-9.55078 0.4448,-21.22391 0.0411,-21.94081 0.14781,-22.87234 2.94098,-25.67927 3.20709,-3.22331 13.99858,-3.26693 17.23761,-0.0702 2.88392,2.84636 2.98553,3.70616 3.02665,25.60813 0.0217,11.59545 0.1568,21.19986 0.30009,21.34313 0.32908,0.32908 0.39199,0.26338 4.89937,-5.11733 z m -44.50356,-1.65817 c -5.916438,-8.91358 -9.556691,-19.53127 -9.972217,-29.08643 -0.189684,-4.36079 -0.471438,-4.46364 -3.564404,-1.30093 -2.447356,2.50252 -27.476967,50.10872 -27.136347,51.61319 0.195068,0.86159 1.888499,1.01124 11.443267,1.01124 h 11.214332 l 10.017454,-8.81501 c 5.509595,-4.84824 10.137775,-8.9857 10.284855,-9.19438 0.14704,-0.20869 -0.88205,-2.11111 -2.28694,-4.22768 z"
       id="path1"
       sodipodi:nodetypes="ssssccscsssscsscssssssscssssscsscssscsssscssssscsssscccccsssscsssssssssscsscsssssssssssscccsssscsssssssssscsss"
       inkscape:transform-center-y="-129.315" /></g></svg>
