<?xml version="1.0" encoding="UTF-8" standalone="no"?>
<!-- Created with Inkscape (http://www.inkscape.org/) -->

<svg
   width="1000"
   height="1000"
   viewBox="0 0 264.58333 264.58333"
   version="1.1"
   id="svg1"
   xml:space="preserve"
   inkscape:version="1.3 (0e150ed6c4, 2023-07-21)"
   sodipodi:docname="aviao.svg"
   xmlns:inkscape="http://www.inkscape.org/namespaces/inkscape"
   xmlns:sodipodi="http://sodipodi.sourceforge.net/DTD/sodipodi-0.dtd"
   xmlns="http://www.w3.org/2000/svg"
   xmlns:svg="http://www.w3.org/2000/svg"><sodipodi:namedview
     id="namedview1"
     pagecolor="#505050"
     bordercolor="#eeeeee"
     borderopacity="1"
     inkscape:showpageshadow="0"
     inkscape:pageopacity="0"
     inkscape:pagecheckerboard="0"
     inkscape:deskcolor="#d1d1d1"
     inkscape:document-units="mm"
     inkscape:zoom="1.6204616"
     inkscape:cx="397.10908"
     inkscape:cy="561.25984"
     inkscape:window-width="3840"
     inkscape:window-height="2054"
     inkscape:window-x="2293"
     inkscape:window-y="-11"
     inkscape:window-maximized="1"
     inkscape:current-layer="layer1" /><defs
     id="defs1" /><g
     inkscape:label="Camada 1"
     inkscape:groupmode="layer"
     id="layer1"><path
       style="fill:#000000;stroke-width:1.45922"
       d="m 108.76613,212.08241 c 0,-28.59597 -0.17374,-51.98976 -0.38608,-51.98619 -0.21235,0.003 -10.654592,-0.94369 -23.204996,-2.10497 -12.550394,-1.16128 -22.891027,-2.03289 -22.979175,-1.93689 -0.08815,0.096 -3.545699,6.95032 -7.683449,15.23183 l -7.52318,15.05728 H 23.867622 0.7459929 L 9.7564182,159.31758 18.766843,132.2917 9.7564182,105.26582 0.7459929,78.239917 H 23.867622 46.98925 l 7.52318,15.057289 c 4.13775,8.281514 7.596879,15.137404 7.686957,15.235334 0.09008,0.0979 10.430701,-0.77324 22.979183,-1.93593 12.548464,-1.16267 22.98913,-2.1115 23.20148,-2.10846 0.21234,0.003 0.38608,-23.391202 0.38608,-51.987169 V 0.50833051 h 18.47623 18.47624 l 0.31548,1.25703079 c 0.17353,0.6913674 1.71493,7.3513164 3.42532,14.7998877 1.7104,7.448572 3.23071,13.948245 3.37846,14.44372 0.2421,0.811919 1.12921,0.900863 8.98518,0.900863 h 8.71655 v 7.721681 7.72168 h -6.95932 c -6.95362,0 -6.9591,9.52e-4 -6.69026,1.158252 0.14798,0.63704 0.85592,3.706407 1.57318,6.820819 0.71728,3.114412 1.427,6.067954 1.57717,6.563429 0.25051,0.826576 1.3314,0.900863 13.10781,0.900863 h 12.83477 v 7.72168 7.721681 H 174.9152 c -6.08726,0 -11.06774,0.09923 -11.06774,0.220385 0,0.595029 4.58813,19.982725 4.7726,20.167199 0.11732,0.117321 6.33054,-0.360951 13.80718,-1.062805 7.47664,-0.701853 20.0801,-1.88443 28.0077,-2.627959 18.04708,-1.692631 21.94435,-1.461754 30.01969,1.778462 6.5983,2.647542 13.84704,8.835491 17.85578,15.242741 1.23998,1.98189 3.00957,5.80413 3.93242,8.49385 1.56966,4.57491 1.67791,5.33871 1.67791,11.83991 0,6.49749 -0.10871,7.26578 -1.6714,11.81201 -2.11281,6.14668 -4.48879,10.05808 -8.98518,14.7916 -5.10785,5.37725 -10.84169,8.78645 -18.11985,10.77363 -5.04516,1.37752 -9.83064,1.3732 -24.70937,-0.0223 -7.9276,-0.74353 -20.53106,-1.92611 -28.0077,-2.62796 -7.47664,-0.70185 -13.68986,-1.18011 -13.80718,-1.06281 -0.18447,0.18448 -4.7726,19.57215 -4.7726,20.16719 0,0.12126 4.98048,0.22039 11.06774,0.22039 h 11.06774 v 7.72167 7.72168 h -12.83477 c -11.77641,0 -12.8573,0.0743 -13.10781,0.90086 -0.15017,0.49548 -0.85989,3.44902 -1.57717,6.56344 -0.71726,3.1144 -1.4252,6.18377 -1.57318,6.82081 -0.26884,1.1573 -0.26336,1.15825 6.69026,1.15825 h 6.95932 v 7.72169 7.72168 h -8.71655 c -7.85597,0 -8.74308,0.0889 -8.98518,0.90086 -0.14775,0.49548 -1.66806,6.99515 -3.37846,14.44372 -1.71039,7.44857 -3.25179,14.10851 -3.42532,14.79989 l -0.31548,1.25703 h -18.47624 -18.47623 z m 24.91838,35.64842 c 0.53045,-1.7166 19.31507,-83.21718 19.2054,-83.32615 -0.0606,-0.0603 -5.32233,-0.59003 -11.69272,-1.17738 -6.37038,-0.58735 -12.79868,-1.20276 -14.28511,-1.36759 L 124.2095,161.56 v 43.53585 43.53584 h 4.59831 c 3.93012,0 4.63877,-0.13089 4.8767,-0.90086 z m -88.106366,-92.56028 7.849274,-15.72957 1.544337,0.2483 c 0.849384,0.13658 39.813457,3.78875 86.586825,8.11598 79.57794,7.36212 85.25081,7.82468 88.28455,7.19848 4.89888,-1.01117 8.53718,-2.96572 12.02415,-6.45953 7.30637,-7.32071 8.90218,-17.32851 4.29433,-26.93112 -1.65395,-3.44677 -6.76398,-8.39349 -10.47688,-10.14204 -6.39472,-3.01153 -0.89505,-3.32135 -94.03899,5.29777 -46.538173,4.30642 -85.425647,7.94862 -86.416596,8.09375 l -1.801726,0.2639 -7.849274,-15.72158 -7.849274,-15.721604 h -7.722783 c -4.24753,0 -7.722781,0.06143 -7.722781,0.136436 0,0.075 2.877469,8.761918 6.394377,19.304208 l 6.394376,19.16778 -6.394376,19.16779 c -3.516908,10.54229 -6.394377,19.22917 -6.394377,19.30421 0,0.075 3.475251,0.13643 7.722781,0.13643 H 37.72887 Z M 141.19719,101.3561 c 6.37039,-0.58735 11.6321,-1.11716 11.69272,-1.17738 0.10973,-0.109 -18.67495,-81.609558 -19.2054,-83.326166 -0.23793,-0.769955 -0.94658,-0.900862 -4.8767,-0.900862 H 124.2095 V 59.487536 103.0234 l 2.70258,-0.29971 c 1.48643,-0.16483 7.91473,-0.78024 14.28511,-1.36759 z"
       id="path1"
       sodipodi:nodetypes="scssscccccccccssscscccsssscccssssscccssssssssssssssssscccssssscccsssscccsscsscccssccsssssssscccssscsssccsssscccss" /></g></svg>
